<svg width="47" height="51" viewBox="0 0 47 51" fill="none" xmlns="http://www.w3.org/2000/svg">
<path d="M15.6847 4.19079C12.1663 10.6735 10.0381 19.8048 9.3252 24.3417C11.2022 20.4221 13.3781 17.1814 15.2164 14.8348C16.9421 12.6321 20.0937 12.6446 22.1116 14.583L29.4208 21.6045C31.7791 23.8699 31.5592 27.7054 28.9575 29.6866L20.7089 35.9676C28.3626 38.7772 38.9147 46.8265 43.2341 50.5C40.7151 45.9465 35.4835 39.3181 33.1825 36.5731C35.0807 34.6749 38.4378 32.2561 41.4691 30.2396C44.0728 28.5076 44.7929 24.9523 42.7324 22.6C36.8325 15.8643 28.3971 8.26159 22.4401 3.22844C20.2687 1.39376 17.0407 1.69231 15.6847 4.19079Z" fill="#56C274"/>
<circle cx="29.064" cy="15.0168" r="6.53957" fill="black"/>
<path d="M-1.75982e-07 50.5C3.64113 37.756 11.488 25.7543 16.4917 19.3549C17.6917 17.8202 19.9385 17.7433 21.3251 19.1116L23.3729 21.1325L24.8463 22.5865C26.4281 24.1475 26.1089 26.7875 24.278 28.047C14.0519 35.0815 4.07107 45.6363 -1.75982e-07 50.5Z" fill="black"/>
</svg>
