<svg width="26" height="26" viewBox="0 0 26 26" fill="none" xmlns="http://www.w3.org/2000/svg">
<path d="M4.33334 2.16675C3.73503 2.16675 3.25 2.65178 3.25 3.25008V5.63805C3.24992 7.67491 3.24986 8.84414 3.4234 9.84378C4.37966 15.3521 9.08687 19.5792 14.9655 20.4286C15.5159 20.5081 16.3471 20.5468 17.3333 20.5656C17.3338 21.1219 17.3383 21.6344 17.3809 22.0337C17.4194 22.3928 17.5373 23.2922 18.282 23.6842C19.0213 24.0736 19.6838 23.6009 19.9486 23.3979C20.2709 23.1509 20.6528 22.7716 21.0608 22.3663L21.1104 22.3171C21.4673 21.9625 21.8374 21.5644 22.1261 21.1619C22.271 20.9599 22.4159 20.7286 22.5287 20.4764C22.6378 20.232 22.75 19.8943 22.75 19.5001C22.75 19.1059 22.6378 18.7682 22.5287 18.5238C22.4159 18.2716 22.271 18.0403 22.1261 17.8384C21.8374 17.4358 21.4673 17.0377 21.1104 16.6831L21.0608 16.6339C20.6528 16.2285 20.2709 15.8492 19.9486 15.6022C19.6838 15.3992 19.0213 14.9266 18.282 15.3159C17.5373 15.708 17.4194 16.6074 17.3809 16.9665C17.3392 17.3572 17.334 17.8561 17.3334 18.3985C16.4317 18.3815 15.7194 18.3484 15.2754 18.2843C10.2107 17.5524 6.33514 13.949 5.55814 9.47319C5.42069 8.68142 5.41667 7.71299 5.41667 5.50008V3.25008C5.41667 2.65178 4.93164 2.16675 4.33334 2.16675Z" fill="#60DC97"/>
</svg>
