<svg width="100" height="100" viewBox="0 0 100 100" fill="none" xmlns="http://www.w3.org/2000/svg">
<path fill-rule="evenodd" clip-rule="evenodd" d="M87.5 20.8333V44.8608L87.4604 44.9025C79.8008 53.1033 68.7337 58.1116 49.9779 58.3312C40.0935 58.3291 32.7616 56.9308 26.8281 54.6762C21.3206 52.5837 16.8362 49.6854 12.5 46.1879V20.8333C12.5 17.4879 14.3229 14.7997 16.522 12.85C18.7259 10.896 21.6773 9.32663 24.9668 8.09308C31.5764 5.6145 40.4279 4.16663 50 4.16663C59.5721 4.16663 68.4237 5.6145 75.0333 8.09308C78.3225 9.32663 81.2742 10.896 83.4779 12.85C85.6771 14.7997 87.5 17.4879 87.5 20.8333ZM22.0504 19.0855C20.8759 20.1267 20.8333 20.7269 20.8333 20.8333C20.8333 20.9397 20.8759 21.5399 22.0504 22.5811C23.22 23.618 25.1501 24.7423 27.8928 25.7708C33.3475 27.8162 41.1626 29.1666 50 29.1666C58.8375 29.1666 66.6525 27.8162 72.1071 25.7708C74.85 24.7423 76.78 23.618 77.9496 22.5811C79.1242 21.5399 79.1667 20.9397 79.1667 20.8333C79.1667 20.7269 79.1242 20.1267 77.9496 19.0855C76.78 18.0485 74.85 16.9243 72.1071 15.8958C66.6525 13.8503 58.8375 12.5 50 12.5C41.1626 12.5 33.3475 13.8503 27.8928 15.8958C25.1501 16.9243 23.22 18.0485 22.0504 19.0855ZM30.0671 42.8412C28.4143 42.3445 26.6716 43.2816 26.1748 44.9345C25.6779 46.5875 26.615 48.33 28.2678 48.8266L28.7224 48.9637C31.0921 49.6783 33.9477 50.5387 37.0318 51.007C38.7382 51.2662 40.3314 50.0929 40.5904 48.3866C40.8495 46.68 39.6762 45.087 37.9698 44.8279C35.3401 44.4287 32.8751 43.6866 30.4381 42.9529L30.0671 42.8412Z" fill="#141B34"/>
<path fill-rule="evenodd" clip-rule="evenodd" d="M50.0496 66.6658C66.4721 66.4771 78.4358 62.8425 87.5 56.0383V79.1679C87.5 82.5133 85.6771 85.2017 83.4779 87.1512C81.2742 89.1054 78.3225 90.6746 75.0333 91.9083C68.4237 94.3867 59.5721 95.8346 50 95.8346C40.4279 95.8346 31.5764 94.3867 24.9668 91.9083C21.6773 90.6746 18.7259 89.1054 16.522 87.1512C14.3229 85.2017 12.5 82.5133 12.5 79.1679V56.5512C15.8906 58.8279 19.6008 60.8462 23.8683 62.4679C30.9273 65.1496 39.3002 66.6662 50.0021 66.6662L50.0496 66.6658ZM30.0671 72.0087C28.4143 71.5117 26.6716 72.4488 26.1748 74.1017C25.6779 75.7546 26.615 77.4971 28.2678 77.9942L28.7224 78.1308C31.0921 78.8454 33.9477 79.7062 37.0318 80.1742C38.7382 80.4333 40.3314 79.26 40.5904 77.5537C40.8495 75.8475 39.6762 74.2542 37.9698 73.995C35.3401 73.5958 32.875 72.8538 30.438 72.1204L30.0671 72.0087Z" fill="#141B34"/>
</svg>
