<svg width="100" height="100" viewBox="0 0 100 100" fill="none" xmlns="http://www.w3.org/2000/svg">
<path fill-rule="evenodd" clip-rule="evenodd" d="M22.916 7.29163C14.2866 7.29163 7.29102 14.2872 7.29102 22.9166V46.875H92.7077V22.9166C92.7077 14.2872 85.7123 7.29163 77.0827 7.29163H22.916ZM92.7077 53.125H7.29102V77.0833C7.29102 85.7129 14.2866 92.7083 22.916 92.7083H77.0827C85.7123 92.7083 92.7077 85.7129 92.7077 77.0833V53.125ZM54.166 26.0416C52.4402 26.0416 51.041 27.4408 51.041 29.1666C51.041 30.8925 52.4402 32.2916 54.166 32.2916H70.8327C72.5585 32.2916 73.9577 30.8925 73.9577 29.1666C73.9577 27.4408 72.5585 26.0416 70.8327 26.0416H54.166ZM27.9616 28.125C27.9616 24.6732 30.7598 21.875 34.2116 21.875C37.6633 21.875 40.4616 24.6732 40.4616 28.125C40.4616 31.5767 37.6633 34.375 34.2116 34.375C30.7598 34.375 27.9616 31.5767 27.9616 28.125ZM34.2116 63.3912C30.7598 63.3912 27.9616 66.1891 27.9616 69.6412C27.9616 73.0929 30.7598 75.8912 34.2116 75.8912C37.6633 75.8912 40.4616 73.0929 40.4616 69.6412C40.4616 66.1891 37.6633 63.3912 34.2116 63.3912ZM51.041 70.8333C51.041 69.1075 52.4402 67.7083 54.166 67.7083H70.8327C72.5585 67.7083 73.9577 69.1075 73.9577 70.8333C73.9577 72.5591 72.5585 73.9583 70.8327 73.9583H54.166C52.4402 73.9583 51.041 72.5591 51.041 70.8333Z" fill="#141B34"/>
</svg>
