<svg width="100" height="100" viewBox="0 0 100 100" fill="none" xmlns="http://www.w3.org/2000/svg">
<path fill-rule="evenodd" clip-rule="evenodd" d="M83.0932 74.0296C81.5665 81.2525 75.1578 86.3992 67.7536 86.458C66.5449 86.5246 66.3178 87.213 66.3553 87.5488C66.3553 91.5492 63.1124 94.7917 59.1124 94.7917H33.3509C31.5474 94.7921 29.894 94.7921 28.5489 94.6113C27.0678 94.4121 25.5022 93.9438 24.2146 92.6559C22.9271 91.3684 22.4585 89.803 22.2594 88.3217C22.0786 86.9767 22.0787 85.3234 22.0789 83.5196V82.7238C22.0789 80.8113 22.079 79.855 22.6555 79.4863C23.2321 79.1175 24.1409 79.5375 25.9584 80.3775C26.5736 80.6617 27.1967 80.9321 27.8273 81.188C29.4263 81.8375 31.1941 80.9271 31.7262 79.2855C32.2584 77.6438 31.3523 75.8938 29.7612 75.2246C27.5406 74.2913 25.4316 73.1492 23.4599 71.8242C22.9918 71.5096 22.5314 71.1838 22.079 70.8488C13.1145 64.2092 7.29102 53.6167 7.29102 41.6667C7.29102 21.4904 23.8646 5.20837 44.2169 5.20837C63.539 5.20837 79.4482 19.8774 81.0165 38.6293C81.0386 39.2548 81.1407 40.5825 81.3736 40.8894L90.2424 52.578C90.859 53.388 91.5074 54.24 91.9419 55.0209C92.4419 55.9188 92.9544 57.2284 92.5799 58.7925C92.2065 60.3513 91.1615 61.288 90.3161 61.8646C89.5765 62.3692 88.614 62.8434 87.6936 63.2967L86.1015 64.0817C85.5611 64.3484 85.2911 64.4813 85.114 64.7113C84.9365 64.9413 84.8769 65.2367 84.7569 65.8271L83.0932 74.0296ZM56.2844 39.8672C54.9769 38.7404 54.8307 36.7671 55.9574 35.4598C57.0844 34.1525 59.0574 34.0062 60.3649 35.133L64.1978 38.4367L64.3136 38.5365C65.0165 39.1422 65.764 39.7857 66.3103 40.4029C66.9278 41.1007 67.6994 42.2084 67.6994 43.75C67.6994 45.2921 66.9278 46.3996 66.3103 47.0971C65.764 47.7146 65.0165 48.358 64.3136 48.9638L64.1978 49.0634L60.3649 52.3671C59.0574 53.4938 57.0844 53.3475 55.9574 52.0405C54.8307 50.733 54.9769 48.7596 56.2844 47.633L60.1174 44.3292C60.3719 44.1096 60.5919 43.92 60.7857 43.75C60.5919 43.58 60.3719 43.3905 60.1174 43.1709L56.2844 39.8672ZM31.5249 35.4598C32.6517 36.7671 32.5054 38.7404 31.1981 39.8672L27.3652 43.1709C27.1103 43.3905 26.8905 43.58 26.6967 43.75C26.8905 43.92 27.1103 44.1096 27.3652 44.3292L31.1981 47.633C32.5054 48.7596 32.6517 50.733 31.5249 52.0405C30.3981 53.3475 28.4249 53.4938 27.1176 52.3671L23.2847 49.0634L23.1689 48.9638C22.4657 48.358 21.7186 47.7146 21.1722 47.0971C20.5545 46.3996 19.7829 45.2921 19.7829 43.75C19.7829 42.2084 20.5545 41.1007 21.1722 40.4029C21.7186 39.7857 22.4657 39.1422 23.1689 38.5365L23.2847 38.4367L27.1176 35.133C28.4249 34.0062 30.3981 34.1525 31.5249 35.4598ZM50.8103 34.4948C51.4511 32.8924 50.6719 31.0737 49.0694 30.4327C47.4669 29.7917 45.6482 30.5712 45.0074 32.1736L36.6739 53.0071C36.0329 54.6092 36.8123 56.428 38.4148 57.0692C40.0172 57.71 41.8357 56.9305 42.4769 55.328L50.8103 34.4948Z" fill="#141B34"/>
</svg>
