<svg width="100" height="100" viewBox="0 0 100 100" fill="none" xmlns="http://www.w3.org/2000/svg">
<path fill-rule="evenodd" clip-rule="evenodd" d="M37.5 12.5C37.5 14.8012 35.6345 16.6667 33.3333 16.6667H29.1667C26.8655 16.6667 25 14.8012 25 12.5C25 10.1989 26.8655 8.33337 29.1667 8.33337H33.3333C35.6345 8.33337 37.5 10.1989 37.5 12.5Z" fill="#141B34"/>
<path fill-rule="evenodd" clip-rule="evenodd" d="M50 29.1667C50 31.4678 48.1346 33.3333 45.8333 33.3333H29.1667C26.8655 33.3333 25 31.4678 25 29.1667C25 26.8655 26.8655 25 29.1667 25H45.8333C48.1346 25 50 26.8655 50 29.1667Z" fill="#141B34"/>
<path d="M12.5007 8.33337C14.8019 8.33337 16.6673 10.1989 16.6673 12.5V58.3334C16.6673 65.3259 16.6762 70.1509 17.1641 73.78C17.4241 75.7142 17.7524 77.9342 19.1998 79.373C21.3156 81.4759 23.5524 82.478 26.2207 82.8367C29.8497 83.3246 34.6749 83.3334 41.6673 83.3334H87.5007C89.8019 83.3334 91.6673 85.1988 91.6673 87.5C91.6673 89.8013 89.8019 91.6667 87.5007 91.6667H41.3673C34.7479 91.6667 29.3597 91.6671 25.1102 91.0955C20.677 90.4996 16.8646 89.2138 13.8257 86.175C10.7869 83.1359 9.50111 79.3238 8.90507 74.8905C8.33378 70.6413 8.33386 65.253 8.33399 58.6334V12.5C8.33399 10.1989 10.1995 8.33337 12.5007 8.33337Z" fill="#141B34"/>
<path d="M25.7806 82.7713C26.5866 81.0688 27.3487 79.3458 28.1108 77.6233C29.583 74.295 31.0548 70.9675 32.8422 67.79C34.5104 64.8238 36.2419 62.3779 38.0473 60.7113C39.8165 59.0783 41.4074 58.4121 42.9412 58.4121C45.327 58.4121 47.1499 60.3263 48.7303 61.9858C48.922 62.1875 49.1108 62.3854 49.2957 62.5758C51.5966 64.9363 55.1987 68.6321 60.8887 68.6321C65.6762 68.6321 69.1424 66.5212 71.7074 63.7129C73.9174 61.2938 75.5849 58.1975 76.9745 55.6167C77.0787 55.4242 77.1808 55.2342 77.2816 55.0475C80.5403 49.02 82.7507 45.8333 87.4982 45.8333C89.7995 45.8333 91.6649 43.9679 91.6649 41.6667C91.6649 39.3655 89.7995 37.5 87.4982 37.5C77.2924 37.5 72.9403 45.5533 70.0362 50.9267C69.837 51.2954 69.6395 51.6679 69.4412 52.0417C68.317 54.1608 67.1691 56.3254 65.5545 58.0933C64.2149 59.5596 62.8582 60.2987 60.8887 60.2987C58.9745 60.2987 57.6732 59.2183 54.9516 56.4396C54.8732 56.3596 54.7933 56.2779 54.712 56.1946C52.3774 53.8038 48.7399 50.0788 42.9412 50.0788C38.6761 50.0788 35.1616 52.0342 32.3952 54.5879C29.665 57.1075 27.4307 60.4125 25.579 63.7046C23.6571 67.1217 22.0697 70.6958 20.4817 74.2717C19.8441 75.7071 19.2064 77.1433 18.5469 78.5692C18.7346 78.8567 18.9499 79.1263 19.1981 79.3729C21.197 81.3596 23.304 82.3638 25.7806 82.7713Z" fill="#141B34"/>
</svg>
