<svg width="100" height="100" viewBox="0 0 100 100" fill="none" xmlns="http://www.w3.org/2000/svg">
<path fill-rule="evenodd" clip-rule="evenodd" d="M8.49977 28.8075C8.68214 27.2311 10.0171 26.0416 11.6041 26.0416H35.0579C35.9442 26.0416 36.7887 26.4179 37.3814 27.0768C37.9741 27.7358 38.2591 28.6153 38.1655 29.4966C37.6595 34.2621 37.291 38.8638 37.291 42.0833C37.291 47.6912 39.0715 52.6662 41.637 56.177C44.2494 59.752 47.3756 61.4583 49.9994 61.4583C52.6231 61.4583 55.7494 59.752 58.3619 56.177C60.9273 52.6662 62.7077 47.6912 62.7077 42.0833C62.7077 38.8638 62.3394 34.2621 61.8331 29.4966C61.7398 28.6153 62.0248 27.7358 62.6173 27.0768C63.2098 26.4179 64.0544 26.0416 64.9406 26.0416H88.3948C89.9814 26.0416 91.3164 27.2311 91.4989 28.8075C92.1781 34.6783 92.7077 41.3538 92.7077 47.9166C92.7077 72.2995 75.7239 92.7083 49.9994 92.7083C24.2748 92.7083 7.29102 72.2995 7.29102 47.9166C7.29102 41.3538 7.82064 34.6783 8.49977 28.8075Z" fill="#141B34"/>
<path fill-rule="evenodd" clip-rule="evenodd" d="M11.5293 9.75804C11.8395 8.319 13.112 7.29163 14.5841 7.29163H37.5007C38.4125 7.29163 39.2788 7.68983 39.8725 8.38183C40.4662 9.07383 40.728 9.99063 40.5894 10.8918L40.5735 10.9956L40.5264 11.3066C40.4852 11.5798 40.4252 11.9818 40.3499 12.4935C40.1992 13.5173 39.9879 14.98 39.7459 16.7321C39.2614 20.2396 38.6558 24.8918 38.1669 29.4966C37.9981 31.0858 36.6575 32.2916 35.0594 32.2916H11.6055C10.7142 32.2916 9.86519 31.911 9.27224 31.2455C8.67932 30.58 8.39874 29.693 8.5012 28.8075C9.12561 23.4094 9.88024 18.6594 10.4789 15.2575C10.7784 13.5556 11.0394 12.1884 11.2262 11.2432C11.3196 10.7706 11.3945 10.4033 11.4465 10.1521L11.5067 9.86388L11.5229 9.78767L11.5293 9.75804C11.5293 9.75779 11.5293 9.75804 14.5841 10.4166L11.5293 9.75804ZM17.1467 13.5416C16.9989 14.317 16.8249 15.2581 16.6343 16.3408C16.1844 18.8973 15.644 22.2368 15.1416 26.0416H32.2612C32.69 22.3103 33.1627 18.715 33.5547 15.8769C33.6723 15.0257 33.7827 14.2417 33.8827 13.5416H17.1467ZM60.1291 8.38183C60.7228 7.68983 61.5891 7.29163 62.5007 7.29163H85.4174C86.8895 7.29163 88.162 8.319 88.4724 9.75804L85.4174 10.4166C88.4724 9.75804 88.472 9.75779 88.4724 9.75804L88.4741 9.76696L88.4787 9.78767L88.4949 9.86388L88.5549 10.1521C88.607 10.4032 88.682 10.7706 88.7753 11.2432C88.962 12.1884 89.2233 13.5556 89.5224 15.2575C90.1212 18.6594 90.8757 23.4094 91.5003 28.8075C91.6028 29.693 91.322 30.58 90.7291 31.2455C90.1362 31.911 89.2874 32.2916 88.3962 32.2916H64.942C63.3441 32.2916 62.0032 31.0858 61.8345 29.4966C61.3457 24.8918 60.7399 20.2396 60.2557 16.7321C60.0137 14.98 59.8024 13.5173 59.6516 12.4935C59.5762 11.9818 59.5162 11.5798 59.4749 11.3066L59.4278 10.9956L59.4124 10.893C59.2737 9.99179 59.5353 9.07383 60.1291 8.38183ZM82.8549 13.5416H66.1187C66.2187 14.2417 66.3291 15.0257 66.447 15.8769C66.8387 18.715 67.3116 22.3103 67.7403 26.0416H84.8599C84.3574 22.2368 83.817 18.8973 83.367 16.3408C83.1766 15.2581 83.0024 14.317 82.8549 13.5416Z" fill="#141B34"/>
</svg>
