<svg width="100" height="100" viewBox="0 0 100 100" fill="none" xmlns="http://www.w3.org/2000/svg">
<path fill-rule="evenodd" clip-rule="evenodd" d="M65.9076 14.5013C66.7417 14.5113 67.5376 14.8547 68.1176 15.4548L82.9309 30.7878C83.508 31.3852 83.8234 32.1877 83.808 33.0181C83.7921 33.8485 83.4467 34.6385 82.8476 35.2137L63.4426 53.8388C62.2155 55.0167 60.2717 54.9967 59.0692 53.7938L44.2555 38.9805C43.6672 38.3919 43.3376 37.5927 43.3405 36.7602C43.343 35.9278 43.678 35.1309 44.2705 34.5462L63.6755 15.4015C64.2692 14.8154 65.073 14.4913 65.9076 14.5013ZM40.6256 46.2038C41.4544 46.2038 42.2492 46.533 42.8355 47.1192L51.1688 55.4525C52.3892 56.673 52.3892 58.6513 51.1688 59.8717L22.002 89.0384C20.7817 90.2588 18.803 90.2588 17.5826 89.0384L9.24928 80.705C8.66323 80.1192 8.33398 79.3242 8.33398 78.4955C8.33398 77.6667 8.66323 76.8717 9.24928 76.2859L38.4159 47.1192C39.002 46.533 39.7969 46.2038 40.6256 46.2038Z" fill="#141B34"/>
<path fill-rule="evenodd" clip-rule="evenodd" d="M19.9816 10.6419C20.3501 9.27906 21.5865 8.33252 22.9983 8.33252C34.3387 8.33252 44.6948 10.1812 53.6861 13.9624C54.679 14.38 55.3869 15.2798 55.5594 16.3433C55.7315 17.4068 55.344 18.484 54.5336 19.1939L45.0461 27.5034C43.9086 28.4997 42.2211 28.5386 41.0388 27.5959C34.8195 22.6366 28.2814 18.1571 21.4237 14.1568C20.2043 13.4454 19.6132 12.0048 19.9816 10.6419ZM82.3048 43.3134C83.3323 43.5155 84.1907 44.2188 84.5902 45.1871C88.1594 53.8321 90.029 63.9646 90.029 75.5263C90.029 76.9247 89.1003 78.1526 87.7548 78.5334C86.4098 78.9138 84.9753 78.3551 84.2423 77.1642C79.8994 70.1071 75.2744 63.488 70.3686 57.3051C69.3857 56.0667 69.4827 54.2892 70.5948 53.1651L79.4798 44.1821C80.2165 43.4371 81.2773 43.1113 82.3048 43.3134Z" fill="#141B34"/>
</svg>
