<svg width="44" height="44" viewBox="0 0 44 44" fill="none" xmlns="http://www.w3.org/2000/svg">
<path d="M40.7857 18.9611C40.7825 18.4503 40.7811 18.1948 40.6201 18.0349C40.4593 17.875 40.2027 17.875 39.6895 17.875H4.30977C3.79665 17.875 3.5401 17.875 3.37922 18.0349C3.21833 18.1948 3.21677 18.4503 3.21364 18.9611C3.20799 19.884 3.20801 20.8609 3.20801 21.8951V22.1049C3.20799 26.1212 3.20797 29.2758 3.53909 31.7387C3.87842 34.2624 4.58799 36.265 6.16134 37.8383C7.73471 39.4117 9.73719 40.1212 12.261 40.4606C14.724 40.7917 17.8785 40.7917 21.8948 40.7917H22.1045C26.1208 40.7917 29.2754 40.7917 31.7383 40.4606C34.2621 40.1212 36.2647 39.4117 37.838 37.8383C39.4114 36.265 40.1209 34.2624 40.4602 31.7387C40.7913 29.2758 40.7913 26.1212 40.7913 22.1049V21.8951C40.7913 20.8609 40.7913 19.884 40.7857 18.9611Z" fill="white"/>
<path fill-rule="evenodd" clip-rule="evenodd" d="M22.1022 3.20837H21.8926C17.8763 3.20836 14.7217 3.20834 12.2588 3.53946C9.73488 3.87879 7.73242 4.58836 6.15906 6.16171C4.58569 7.73508 3.87613 9.73755 3.5368 12.2614C3.46455 12.7989 3.40807 13.3692 3.3639 13.9743C3.32498 14.5074 3.30553 14.774 3.46869 14.9495C3.63188 15.125 3.90411 15.125 4.44857 15.125H39.5461C40.0906 15.125 40.3629 15.125 40.5261 14.9495C40.6892 14.774 40.6698 14.5075 40.6309 13.9744C40.5867 13.3693 40.5303 12.7989 40.458 12.2614C40.1187 9.73755 39.409 7.73508 37.8356 6.16171C36.2623 4.58836 34.2599 3.87879 31.736 3.53946C29.2731 3.20834 26.1184 3.20836 22.1022 3.20837ZM10.9997 9.16671C10.9997 8.15419 11.8205 7.33337 12.833 7.33337H12.8495C13.862 7.33337 14.6828 8.15419 14.6828 9.16671C14.6828 10.1792 13.862 11 12.8495 11H12.833C11.8205 11 10.9997 10.1792 10.9997 9.16671ZM20.1663 7.33337C19.1538 7.33337 18.333 8.15419 18.333 9.16671C18.333 10.1792 19.1538 11 20.1663 11H20.1828C21.1954 11 22.0162 10.1792 22.0162 9.16671C22.0162 8.15419 21.1954 7.33337 20.1828 7.33337H20.1663Z" fill="white"/>
</svg>
