<svg width="16" height="28" viewBox="0 0 16 28" fill="none" xmlns="http://www.w3.org/2000/svg">
<path opacity="0.4" d="M0.706491 1.36356C1.33422 0.511214 2.53405 0.329149 3.38637 0.956896C4.04841 1.44448 4.67771 1.93217 5.22588 2.35991C6.31991 3.21381 7.78539 4.38936 9.25624 5.66653C10.7177 6.93544 12.2286 8.34233 13.3892 9.6558C13.9674 10.3103 14.4993 10.9869 14.897 11.6466C15.2629 12.2536 15.6663 13.0877 15.6663 14.0002C15.6663 14.9128 15.2629 15.7471 14.897 16.3541C14.4993 17.0138 13.9674 17.6902 13.3892 18.3447C12.2286 19.6582 10.7177 21.0651 9.25624 22.3341C7.78539 23.6112 6.31991 24.7867 5.22588 25.6407C4.67771 26.0683 4.04841 26.5561 3.38639 27.0437C2.53405 27.6714 1.33422 27.4894 0.706491 26.637C0.454143 26.2943 0.332682 25.8956 0.333027 25.5004L0.333008 14.0002V2.50018C0.332683 2.10496 0.454143 1.70618 0.706491 1.36356Z" fill="#56A77A"/>
<path d="M13.3891 9.6558C13.9674 10.3103 14.4993 10.9868 14.897 11.6466C15.2629 12.2536 15.6663 13.0877 15.6663 14.0002C15.6663 14.9128 15.2629 15.7471 14.897 16.3541C14.4993 17.0138 13.9674 17.6902 13.3891 18.3447C12.2286 19.6582 10.7177 21.0651 9.25624 22.3341C7.78539 23.6112 6.31991 24.7867 5.22587 25.6407C4.67771 26.0683 4.04841 26.5561 3.38639 27.0437C2.53405 27.6714 1.33422 27.4893 0.70649 26.637C0.454142 26.2943 0.332681 25.8956 0.333026 25.5004L0.333008 15.9167L10.0139 6.33337C11.2279 7.41736 12.4285 8.56859 13.3891 9.6558Z" fill="#56A77A"/>
</svg>
