<svg width="105" height="60" viewBox="0 0 105 60" fill="none" xmlns="http://www.w3.org/2000/svg">
<g clip-path="url(#clip0_1354_89)">
<path d="M55.8826 2.42385C57.2704 0.980137 59.1552 0.169067 61.1178 0.169067C69.9477 0.169067 78.2689 0.169072 86.4636 0.169088C102.945 0.169123 111.199 20.8994 99.5443 33.0235L74.1583 59.4326C72.9929 60.6451 71.0002 59.7863 71.0002 58.0717V34.8115L73.9339 31.7594C76.2647 29.3347 74.614 25.1885 71.3176 25.1885H34L55.8826 2.42385Z" fill="#3A04FF"/>
<path d="M49.1173 57.5763C47.7297 59.0201 45.8449 59.8311 43.8823 59.8311C35.0524 59.8311 26.7312 59.8311 18.5365 59.8311C2.05474 59.831 -6.19854 39.1008 5.45581 26.9766L30.8418 0.567554C32.0071 -0.644862 33.9999 0.213821 33.9999 1.92843L34 25.1884L31.0662 28.2407C28.7353 30.6656 30.3861 34.8116 33.6825 34.8116L71.0002 34.8114L49.1173 57.5763Z" fill="#3A04FF"/>
</g>
<defs>
<clipPath id="clip0_1354_89">
<rect width="105" height="60" fill="white"/>
</clipPath>
</defs>
</svg>
