<svg width="83" height="68" viewBox="0 0 83 68" fill="none" xmlns="http://www.w3.org/2000/svg">
<g clip-path="url(#clip0_1354_83)">
<path d="M63.342 68C74.2384 67.7771 83 58.8324 83 47.8361C83 42.4883 80.8847 37.3595 77.1192 33.5781L43.6843 0V20.8711C43.6843 24.3615 45.0649 27.7092 47.5228 30.1774L55.3551 38.0433L55.3764 38.0642L68.5092 51.2533C68.9357 51.6815 68.9357 52.376 68.5092 52.8042C68.0829 53.2326 67.3913 53.2326 66.9649 52.8042L62.438 48.2581H20.562L16.0352 52.8042C15.6087 53.2326 14.9172 53.2326 14.4907 52.8042C14.0642 52.376 14.0642 51.6815 14.4907 51.2533L27.6236 38.0642L27.6449 38.0433L35.4773 30.1774C37.9351 27.7092 39.3157 24.3615 39.3157 20.8711V0L5.88072 33.5781C2.11535 37.3595 0 42.4883 0 47.8361C0 58.8324 8.76162 67.7771 19.658 68H63.342Z" fill="#FF0A0A"/>
</g>
<defs>
<clipPath id="clip0_1354_83">
<rect width="83" height="68" fill="white"/>
</clipPath>
</defs>
</svg>
